<?xml version="1.0" encoding="UTF-8" standalone="no"?>
<svg
   xmlns:osb="http://www.openswatchbook.org/uri/2009/osb"
   xmlns:dc="http://purl.org/dc/elements/1.1/"
   xmlns:cc="http://creativecommons.org/ns#"
   xmlns:rdf="http://www.w3.org/1999/02/22-rdf-syntax-ns#"
   xmlns:svg="http://www.w3.org/2000/svg"
   xmlns="http://www.w3.org/2000/svg"
   xmlns:xlink="http://www.w3.org/1999/xlink"
   id="svg8528"
   version="1.1"
   viewBox="0 0 210 297"
   height="297mm"
   width="210mm">
  <defs
     id="defs8522">
    <linearGradient
       osb:paint="solid"
       id="linearGradient10905">
      <stop
         id="stop10903"
         offset="0"
         style="stop-color:#1569c7;stop-opacity:1;" />
    </linearGradient>
    <linearGradient
       id="linearGradient9379">
      <stop
         id="stop9375"
         offset="0"
         style="stop-color:#1569c7;stop-opacity:1;" />
      <stop
         id="stop9377"
         offset="1"
         style="stop-color:#1569c7;stop-opacity:0;" />
    </linearGradient>
    <linearGradient
       gradientUnits="userSpaceOnUse"
       y2="485.23735"
       x2="554.94141"
       y1="485.23735"
       x1="231.05078"
       id="linearGradient9385"
       xlink:href="#linearGradient9379" />
    <filter
       height="1.022963"
       y="-0.011481513"
       width="1.0022099"
       x="-0.0011049532"
       id="filter15423"
       style="color-interpolation-filters:sRGB">
      <feGaussianBlur
         id="feGaussianBlur15425"
         stdDeviation="0.14865793" />
    </filter>
    <filter
       height="1.0027785"
       y="-0.001389234"
       width="1.0183934"
       x="-0.0091966802"
       id="filter15439"
       style="color-interpolation-filters:sRGB">
      <feGaussianBlur
         id="feGaussianBlur15441"
         stdDeviation="0.011196547" />
    </filter>
  </defs>
  <metadata
     id="metadata8525">
    <rdf:RDF>
      <cc:Work
         rdf:about="">
        <dc:format>image/svg+xml</dc:format>
        <dc:type
           rdf:resource="http://purl.org/dc/dcmitype/StillImage" />
        <dc:title></dc:title>
      </cc:Work>
    </rdf:RDF>
  </metadata>
  <g
     id="layer1">
    <rect
       y="109.14584"
       x="29.104166"
       height="44.979156"
       width="148.16667"
       id="rect8538"
       style="opacity:1;vector-effect:none;fill:#ff6347;fill-opacity:1;fill-rule:evenodd;stroke:#1569c7;stroke-width:0;stroke-linecap:butt;stroke-linejoin:miter;stroke-miterlimit:4;stroke-dasharray:none;stroke-dashoffset:0;stroke-opacity:1" />
    <flowRoot
       transform="matrix(0.4090532,0,0,0.63821139,-49.374331,-169.68496)"
       style="font-style:normal;font-variant:normal;font-weight:bold;font-stretch:normal;font-size:40px;line-height:1.25;font-family:Verdana;-inkscape-font-specification:'Verdana Bold';letter-spacing:0px;word-spacing:0px;fill:#fffafa;fill-opacity:1;stroke:none;stroke-width:0.9785834;stroke-linecap:square;stroke-linejoin:miter;stroke-miterlimit:4;stroke-dasharray:none;stroke-opacity:1;filter:url(#filter15423)"
       id="flowRoot8597"
       xml:space="preserve"><flowRegion
         style="font-style:normal;font-variant:normal;font-weight:bold;font-stretch:normal;font-family:Verdana;-inkscape-font-specification:'Verdana Bold';fill:#fffafa;fill-opacity:1;stroke:none;stroke-width:0.9785834;stroke-linecap:square;stroke-linejoin:miter;stroke-miterlimit:4;stroke-dasharray:none;stroke-opacity:1"
         id="flowRegion8599"><rect
           style="font-style:normal;font-variant:normal;font-weight:bold;font-stretch:normal;font-family:Verdana;-inkscape-font-specification:'Verdana Bold';fill:#fffafa;fill-opacity:1;stroke:none;stroke-width:0.9785834;stroke-linecap:square;stroke-linejoin:miter;stroke-miterlimit:4;stroke-dasharray:none;stroke-opacity:1"
           y="463.59827"
           x="228.22977"
           height="82.825317"
           width="449.09729"
           id="rect8601" /></flowRegion><flowPara
         style="fill:#fffafa;fill-opacity:1;stroke:none;stroke-width:0.9785834;stroke-linecap:square;stroke-linejoin:miter;stroke-miterlimit:4;stroke-dasharray:none;stroke-opacity:1"
         id="flowPara8603">heBeerCrow</flowPara></flowRoot>    <text
       transform="scale(0.74776866,1.337312)"
       id="text15445"
       y="111.86308"
       x="209.19824"
       style="font-style:normal;font-variant:normal;font-weight:bold;font-stretch:normal;font-size:20.36117172px;line-height:1.25;font-family:Verdana;-inkscape-font-specification:'Verdana, Bold';font-variant-ligatures:normal;font-variant-caps:normal;font-variant-numeric:normal;font-feature-settings:normal;text-align:start;letter-spacing:0px;word-spacing:0px;writing-mode:lr-tb;text-anchor:start;fill:#fffafa;fill-opacity:1;stroke:none;stroke-width:0.50903022"
       xml:space="preserve"><tspan
         style="font-style:normal;font-variant:normal;font-weight:bold;font-stretch:normal;font-size:20.36117172px;font-family:Verdana;-inkscape-font-specification:'Verdana, Bold';font-variant-ligatures:normal;font-variant-caps:normal;font-variant-numeric:normal;font-feature-settings:normal;text-align:start;writing-mode:lr-tb;text-anchor:start;fill:#fffafa;fill-opacity:1;stroke-width:0.50903022"
         y="111.86308"
         x="209.19824"
         id="tspan15443">d</tspan></text>
  </g>
  <g
     style="display:inline"
     id="layer3" />
  <g
     style="display:inline"
     id="layer2">
    <rect
       transform="matrix(0.99897898,0,0,1.0647487,0.04173117,-9.5905587)"
       y="130.10718"
       x="39.411438"
       height="19.342827"
       width="2.9218926"
       id="rect8541"
       style="opacity:1;vector-effect:none;fill:#fffafa;fill-opacity:1;fill-rule:evenodd;stroke:none;stroke-width:0.5003829;stroke-linecap:butt;stroke-linejoin:miter;stroke-miterlimit:4;stroke-dasharray:none;stroke-dashoffset:0;stroke-opacity:1;filter:url(#filter15439)" />
    <rect
       ry="0"
       y="126.97074"
       x="31.75"
       height="2.2219999"
       width="142.72301"
       id="rect8543"
       style="opacity:1;vector-effect:none;fill:#fffafa;fill-opacity:1;fill-rule:evenodd;stroke:none;stroke-width:0.42040664;stroke-linecap:butt;stroke-linejoin:miter;stroke-miterlimit:4;stroke-dasharray:none;stroke-dashoffset:0;stroke-opacity:1" />
  </g>
  <g
     id="layer4">
    <g
       style="display:inline;fill:#fffafa;fill-opacity:1;stroke:none;stroke-width:0.4352276;stroke-linecap:butt;stroke-linejoin:miter;stroke-miterlimit:4;stroke-dasharray:none;stroke-opacity:1;paint-order:normal"
       transform="matrix(0.323343,0,0,0.36735522,135.94167,114.55104)"
       id="g11213">
      <g
         style="fill:#fffafa;fill-opacity:1;stroke:none;stroke-width:0.4352276;stroke-linecap:butt;stroke-linejoin:miter;stroke-miterlimit:4;stroke-dasharray:none;stroke-opacity:1;paint-order:normal"
         id="g11211">
        <g
           style="fill:#fffafa;fill-opacity:1;stroke:none;stroke-width:0.4352276;stroke-linecap:butt;stroke-linejoin:miter;stroke-miterlimit:4;stroke-dasharray:none;stroke-opacity:1;paint-order:normal"
           id="g11209">
          <polygon
             style="fill:#fffafa;fill-opacity:1;stroke:none;stroke-width:0.4352276;stroke-linecap:butt;stroke-linejoin:miter;stroke-miterlimit:4;stroke-dasharray:none;stroke-opacity:1;paint-order:normal"
             points="7.04,30.316 24.998,30.316 24.488,32.037 7.549,32.037 "
             data-original="#FFFAFA"
             class="active-path"
             data-old_color=" rgb(255, 250, 250)"
             id="polygon11201" />
          <path
             style="fill:#fffafa;fill-opacity:1;stroke:none;stroke-width:0.4352276;stroke-linecap:butt;stroke-linejoin:miter;stroke-miterlimit:4;stroke-dasharray:none;stroke-opacity:1;paint-order:normal"
             d="M 23.205,0.573 C 23.205,0.257 22.948,0 22.631,0 H 9.406 C 9.088,0 8.833,0.257 8.833,0.573 v 0 c 0,0.317 0.257,0.573 0.573,0.573 h 13.226 c 0.316,0.001 0.573,-0.256 0.573,-0.573 z"
             data-original="#FFFAFA"
             class="active-path"
             data-old_color=" rgb(255, 250, 250)"
             id="path11203" />
          <g
             style="fill:#fffafa;fill-opacity:1;stroke:none;stroke-width:0.4352276;stroke-linecap:butt;stroke-linejoin:miter;stroke-miterlimit:4;stroke-dasharray:none;stroke-opacity:1;paint-order:normal"
             id="g11207">
            <path
               style="fill:#fffafa;fill-opacity:1;stroke:none;stroke-width:0.4352276;stroke-linecap:butt;stroke-linejoin:miter;stroke-miterlimit:4;stroke-dasharray:none;stroke-opacity:1;paint-order:normal"
               d="M 22.958,2.019 H 9.079 L 7.04,5.459 V 29.667 H 24.998 V 5.459 Z m 0.968,17.158 c -4.313,1.359 -5.029,-0.51 -9.276,-1.614 -4.247,-1.104 -6.54,2.889 -6.54,2.889 v -9.428 c 0,0 1.615,-4.668 6.71,-1.274 6.965,4.639 9.106,1.699 9.106,1.699 0,0 0,4.755 0,7.728 z"
               data-original="#FFFAFA"
               class="active-path"
               data-old_color=" rgb(255, 250, 250)"
               id="path11205" />
          </g>
        </g>
      </g>
    </g>
    <g
       style="display:inline;fill:#fffafa;fill-opacity:1;stroke:none;stroke-width:0.3776415;stroke-linecap:round;stroke-linejoin:round;stroke-miterlimit:4;stroke-dasharray:none;stroke-opacity:1;paint-order:normal"
       transform="matrix(0.44362137,0,0,0.35564,156.91711,112.218)"
       id="pint">
      <g
         style="fill:#fffafa;fill-opacity:1;stroke:none;stroke-width:0.3776415;stroke-linecap:round;stroke-linejoin:round;stroke-miterlimit:4;stroke-dasharray:none;stroke-opacity:1;paint-order:normal"
         id="g11053">
        <g
           style="fill:#fffafa;fill-opacity:1;stroke:none;stroke-width:0.3776415;stroke-linecap:round;stroke-linejoin:round;stroke-miterlimit:4;stroke-dasharray:none;stroke-opacity:1;paint-order:normal"
           id="g11047">
          <path
             style="fill:#fffafa;fill-opacity:1;stroke:none;stroke-width:0.3776415;stroke-linecap:round;stroke-linejoin:round;stroke-miterlimit:4;stroke-dasharray:none;stroke-opacity:1;paint-order:normal"
             d="M 25.964,39.689 H 13.725 c -0.404,0 -0.736,-0.318 -0.753,-0.723 -0.006,-0.135 -0.131,-3.35 0.687,-7.06 0.74,-3.358 -0.112,-5.374 -0.121,-5.394 C 13.521,26.473 13.506,26.428 13.495,26.387 13.353,25.807 9.988,12.108 9.825,6.804 9.682,2.152 10.285,0.613 10.354,0.453 10.474,0.179 10.746,0 11.046,0 h 17.597 c 0.301,0 0.572,0.179 0.692,0.454 0.068,0.16 0.672,1.7 0.528,6.351 -0.163,5.305 -3.527,19.003 -3.671,19.583 -0.011,0.045 -0.026,0.088 -0.044,0.129 -0.007,0.017 -0.859,2.032 -0.119,5.39 0.817,3.71 0.693,6.925 0.688,7.061 -0.017,0.403 -0.35,0.721 -0.753,0.721 z M 14.472,38.182 H 25.217 C 25.206,37.053 25.11,34.74 24.558,32.231 23.775,28.68 24.569,26.41 24.743,25.973 24.98,25.004 28.204,11.741 28.357,6.759 28.448,3.805 28.222,2.215 28.07,1.507 H 11.618 C 11.467,2.21 11.241,3.8 11.332,6.759 c 0.153,4.981 3.377,18.244 3.614,19.214 0.174,0.437 0.968,2.707 0.185,6.258 -0.552,2.508 -0.649,4.822 -0.659,5.951 z"
             id="path11045" />
        </g>
        <g
           style="fill:#fffafa;fill-opacity:1;stroke:none;stroke-width:0.3776415;stroke-linecap:round;stroke-linejoin:round;stroke-miterlimit:4;stroke-dasharray:none;stroke-opacity:1;paint-order:normal"
           id="g11051">
          <path
             style="fill:#fffafa;fill-opacity:1;stroke:none;stroke-width:0.3776415;stroke-linecap:round;stroke-linejoin:round;stroke-miterlimit:4;stroke-dasharray:none;stroke-opacity:1;paint-order:normal"
             d="m 23.543,25.594 c 0.32,-1.318 2.901,-12.012 3.458,-17.472 h -1.805 c 0,0 -0.754,5.024 -1.591,7.703 0.167,-5.024 0,-7.703 0,-7.703 H 12.688 c 0.556,5.462 3.138,16.155 3.459,17.472 0.282,0.745 1.025,3.215 0.211,6.907 -0.179,0.813 -0.307,1.601 -0.4,2.331 h 7.772 c -0.093,-0.732 -0.22,-1.521 -0.399,-2.331 -0.813,-3.692 -0.07,-6.162 0.212,-6.907 z"
             id="path11049" />
        </g>
      </g>
      <g
         style="fill:#fffafa;fill-opacity:1;stroke:none;stroke-width:0.3776415;stroke-linecap:round;stroke-linejoin:round;stroke-miterlimit:4;stroke-dasharray:none;stroke-opacity:1;paint-order:normal"
         id="g11055" />
      <g
         style="fill:#fffafa;fill-opacity:1;stroke:none;stroke-width:0.3776415;stroke-linecap:round;stroke-linejoin:round;stroke-miterlimit:4;stroke-dasharray:none;stroke-opacity:1;paint-order:normal"
         id="g11057" />
      <g
         style="fill:#fffafa;fill-opacity:1;stroke:none;stroke-width:0.3776415;stroke-linecap:round;stroke-linejoin:round;stroke-miterlimit:4;stroke-dasharray:none;stroke-opacity:1;paint-order:normal"
         id="g11059" />
      <g
         style="fill:#fffafa;fill-opacity:1;stroke:none;stroke-width:0.3776415;stroke-linecap:round;stroke-linejoin:round;stroke-miterlimit:4;stroke-dasharray:none;stroke-opacity:1;paint-order:normal"
         id="g11061" />
      <g
         style="fill:#fffafa;fill-opacity:1;stroke:none;stroke-width:0.3776415;stroke-linecap:round;stroke-linejoin:round;stroke-miterlimit:4;stroke-dasharray:none;stroke-opacity:1;paint-order:normal"
         id="g11063" />
      <g
         style="fill:#fffafa;fill-opacity:1;stroke:none;stroke-width:0.3776415;stroke-linecap:round;stroke-linejoin:round;stroke-miterlimit:4;stroke-dasharray:none;stroke-opacity:1;paint-order:normal"
         id="g11065" />
      <g
         style="fill:#fffafa;fill-opacity:1;stroke:none;stroke-width:0.3776415;stroke-linecap:round;stroke-linejoin:round;stroke-miterlimit:4;stroke-dasharray:none;stroke-opacity:1;paint-order:normal"
         id="g11067" />
      <g
         style="fill:#fffafa;fill-opacity:1;stroke:none;stroke-width:0.3776415;stroke-linecap:round;stroke-linejoin:round;stroke-miterlimit:4;stroke-dasharray:none;stroke-opacity:1;paint-order:normal"
         id="g11069" />
      <g
         style="fill:#fffafa;fill-opacity:1;stroke:none;stroke-width:0.3776415;stroke-linecap:round;stroke-linejoin:round;stroke-miterlimit:4;stroke-dasharray:none;stroke-opacity:1;paint-order:normal"
         id="g11071" />
      <g
         style="fill:#fffafa;fill-opacity:1;stroke:none;stroke-width:0.3776415;stroke-linecap:round;stroke-linejoin:round;stroke-miterlimit:4;stroke-dasharray:none;stroke-opacity:1;paint-order:normal"
         id="g11073" />
      <g
         style="fill:#fffafa;fill-opacity:1;stroke:none;stroke-width:0.3776415;stroke-linecap:round;stroke-linejoin:round;stroke-miterlimit:4;stroke-dasharray:none;stroke-opacity:1;paint-order:normal"
         id="g11075" />
      <g
         style="fill:#fffafa;fill-opacity:1;stroke:none;stroke-width:0.3776415;stroke-linecap:round;stroke-linejoin:round;stroke-miterlimit:4;stroke-dasharray:none;stroke-opacity:1;paint-order:normal"
         id="g11077" />
      <g
         style="fill:#fffafa;fill-opacity:1;stroke:none;stroke-width:0.3776415;stroke-linecap:round;stroke-linejoin:round;stroke-miterlimit:4;stroke-dasharray:none;stroke-opacity:1;paint-order:normal"
         id="g11079" />
      <g
         style="fill:#fffafa;fill-opacity:1;stroke:none;stroke-width:0.3776415;stroke-linecap:round;stroke-linejoin:round;stroke-miterlimit:4;stroke-dasharray:none;stroke-opacity:1;paint-order:normal"
         id="g11081" />
      <g
         style="fill:#fffafa;fill-opacity:1;stroke:none;stroke-width:0.3776415;stroke-linecap:round;stroke-linejoin:round;stroke-miterlimit:4;stroke-dasharray:none;stroke-opacity:1;paint-order:normal"
         id="g11083" />
    </g>
    <g
       style="fill:#fffafa;fill-opacity:0.98039216;stroke:none;stroke-width:0.26675826;stroke-miterlimit:4;stroke-dasharray:none;stroke-opacity:1;paint-order:normal"
       transform="matrix(0.61615031,0,0,0.51316863,148.56904,113.44995)"
       id="g11349">
      <g
         style="fill:#fffafa;fill-opacity:0.98039216;stroke:none;stroke-width:0.26681161;stroke-miterlimit:4;stroke-dasharray:none;stroke-opacity:1;paint-order:normal"
         transform="matrix(0.9998,0,0,0.9998,-4.99749,0.00251127)"
         id="g11347">
        <g
           style="fill:#fffafa;fill-opacity:0.98039216;stroke:none;stroke-width:0.2669718;stroke-miterlimit:4;stroke-dasharray:none;stroke-opacity:1;paint-order:normal"
           transform="matrix(0.9994,0,0,0.9994,0.0075323,0.0075323)"
           id="g11345">
          <g
             style="fill:#fffafa;fill-opacity:0.98039216;stroke:none;stroke-width:0.2669718;stroke-miterlimit:4;stroke-dasharray:none;stroke-opacity:1;paint-order:normal"
             id="g11343">
            <path
               style="fill:#fffafa;fill-opacity:0.98039216;stroke:none;stroke-width:0.2669718;stroke-miterlimit:4;stroke-dasharray:none;stroke-opacity:1;paint-order:normal"
               d="M 18.384,7.175 C 16.846,4.572 17.109,0.513 17.112,0.472 L 17.145,0 H 7.972 l 0.033,0.472 c 0.003,0.041 0.269,4.095 -1.272,6.703 -1.694,2.866 -1.204,5.668 -1.184,5.772 0.008,0.051 0.825,5.049 6.454,5.283 v 5.326 h -0.007 c -1.778,0.057 -4.142,0.381 -4.142,0.773 0,0.434 2.658,0.784 4.703,0.784 2.045,0 4.703,-0.351 4.703,-0.784 0,-0.395 -2.271,-0.719 -4.148,-0.773 v -5.328 c 5.629,-0.233 6.447,-5.229 6.452,-5.267 0.023,-0.118 0.512,-2.921 -1.18,-5.786 z M 10.148,2.242 V 2.24 c 0,0 -0.322,3.766 -1.782,6.237 -1.46,2.471 -1.011,4.914 -1.011,4.914 0,0 0.319,2.123 2.22,3.424 C 6.896,15.641 6.442,12.958 6.418,12.803 6.413,12.777 5.972,10.196 7.492,7.624 8.863,5.305 8.932,2.085 8.904,0.883 h 7.308 c -0.009,0.324 -0.008,0.798 0.022,1.359 z"
               data-original="#1569C7"
               class="active-path"
               data-old_color="#fffafa"
               id="path11341" />
          </g>
        </g>
      </g>
    </g>
  </g>
</svg>
